<mxfile host="app.diagrams.net" modified="2021-02-08T02:10:18.518Z" agent="5.0 (Windows NT 10.0; Win64; x64) AppleWebKit/537.36 (KHTML, like Gecko) Chrome/88.0.4324.96 Safari/537.36 Edg/88.0.705.56" etag="vBj6RlEX-vpVX_Fj6MNx" version="14.2.9" type="github">
  <diagram id="C5RBs43oDa-KdzZeNtuy" name="Page-1">
    <mxGraphModel dx="1422" dy="794" grid="1" gridSize="10" guides="1" tooltips="1" connect="1" arrows="1" fold="1" page="1" pageScale="1" pageWidth="827" pageHeight="1169" math="0" shadow="0">
      <root>
        <mxCell id="WIyWlLk6GJQsqaUBKTNV-0" />
        <mxCell id="WIyWlLk6GJQsqaUBKTNV-1" parent="WIyWlLk6GJQsqaUBKTNV-0" />
        <mxCell id="NrTYAa0sfm_7d7Uz3QzO-25" value="" style="edgeStyle=orthogonalEdgeStyle;rounded=0;orthogonalLoop=1;jettySize=auto;html=1;fontSize=20;" edge="1" parent="WIyWlLk6GJQsqaUBKTNV-1" source="WIyWlLk6GJQsqaUBKTNV-3" target="NrTYAa0sfm_7d7Uz3QzO-3">
          <mxGeometry relative="1" as="geometry" />
        </mxCell>
        <mxCell id="WIyWlLk6GJQsqaUBKTNV-3" value="拷数据，徐畅旁电脑入口" style="rounded=1;whiteSpace=wrap;html=1;fontSize=12;glass=0;strokeWidth=1;shadow=0;" parent="WIyWlLk6GJQsqaUBKTNV-1" vertex="1">
          <mxGeometry x="10" y="70" width="120" height="40" as="geometry" />
        </mxCell>
        <mxCell id="WIyWlLk6GJQsqaUBKTNV-8" value="No" style="rounded=0;html=1;jettySize=auto;orthogonalLoop=1;fontSize=11;endArrow=block;endFill=0;endSize=8;strokeWidth=1;shadow=0;labelBackgroundColor=none;edgeStyle=orthogonalEdgeStyle;" parent="WIyWlLk6GJQsqaUBKTNV-1" source="WIyWlLk6GJQsqaUBKTNV-10" edge="1">
          <mxGeometry x="0.3333" y="20" relative="1" as="geometry">
            <mxPoint as="offset" />
            <mxPoint x="70" y="402.5" as="targetPoint" />
          </mxGeometry>
        </mxCell>
        <mxCell id="WIyWlLk6GJQsqaUBKTNV-9" value="Yes" style="edgeStyle=orthogonalEdgeStyle;rounded=0;html=1;jettySize=auto;orthogonalLoop=1;fontSize=11;endArrow=block;endFill=0;endSize=8;strokeWidth=1;shadow=0;labelBackgroundColor=none;" parent="WIyWlLk6GJQsqaUBKTNV-1" source="WIyWlLk6GJQsqaUBKTNV-10" target="WIyWlLk6GJQsqaUBKTNV-12" edge="1">
          <mxGeometry y="10" relative="1" as="geometry">
            <mxPoint as="offset" />
          </mxGeometry>
        </mxCell>
        <mxCell id="WIyWlLk6GJQsqaUBKTNV-10" value="是否需要权限控制" style="rhombus;whiteSpace=wrap;html=1;shadow=0;fontFamily=Helvetica;fontSize=12;align=center;strokeWidth=1;spacing=6;spacingTop=-4;" parent="WIyWlLk6GJQsqaUBKTNV-1" vertex="1">
          <mxGeometry x="20" y="290" width="100" height="80" as="geometry" />
        </mxCell>
        <mxCell id="NrTYAa0sfm_7d7Uz3QzO-2" value="" style="edgeStyle=orthogonalEdgeStyle;rounded=0;orthogonalLoop=1;jettySize=auto;html=1;" edge="1" parent="WIyWlLk6GJQsqaUBKTNV-1" source="WIyWlLk6GJQsqaUBKTNV-11" target="NrTYAa0sfm_7d7Uz3QzO-0">
          <mxGeometry relative="1" as="geometry" />
        </mxCell>
        <mxCell id="WIyWlLk6GJQsqaUBKTNV-11" value="多规运维定义两套服务，其中一套权限控制用" style="rounded=1;whiteSpace=wrap;html=1;fontSize=12;glass=0;strokeWidth=1;shadow=0;" parent="WIyWlLk6GJQsqaUBKTNV-1" vertex="1">
          <mxGeometry x="10" y="472.5" width="120" height="55" as="geometry" />
        </mxCell>
        <mxCell id="WIyWlLk6GJQsqaUBKTNV-12" value="到阿推权限控制系统裁切服务" style="rounded=1;whiteSpace=wrap;html=1;fontSize=12;glass=0;strokeWidth=1;shadow=0;" parent="WIyWlLk6GJQsqaUBKTNV-1" vertex="1">
          <mxGeometry x="180" y="307.5" width="120" height="45" as="geometry" />
        </mxCell>
        <mxCell id="NrTYAa0sfm_7d7Uz3QzO-13" value="" style="edgeStyle=orthogonalEdgeStyle;rounded=0;orthogonalLoop=1;jettySize=auto;html=1;" edge="1" parent="WIyWlLk6GJQsqaUBKTNV-1" source="NrTYAa0sfm_7d7Uz3QzO-0" target="NrTYAa0sfm_7d7Uz3QzO-11">
          <mxGeometry relative="1" as="geometry" />
        </mxCell>
        <mxCell id="NrTYAa0sfm_7d7Uz3QzO-0" value="多规运维服务关联目录树" style="rounded=1;whiteSpace=wrap;html=1;" vertex="1" parent="WIyWlLk6GJQsqaUBKTNV-1">
          <mxGeometry x="10" y="567.5" width="120" height="45" as="geometry" />
        </mxCell>
        <mxCell id="NrTYAa0sfm_7d7Uz3QzO-26" value="" style="edgeStyle=orthogonalEdgeStyle;rounded=0;orthogonalLoop=1;jettySize=auto;html=1;fontSize=12;" edge="1" parent="WIyWlLk6GJQsqaUBKTNV-1" source="NrTYAa0sfm_7d7Uz3QzO-3" target="NrTYAa0sfm_7d7Uz3QzO-24">
          <mxGeometry relative="1" as="geometry" />
        </mxCell>
        <mxCell id="NrTYAa0sfm_7d7Uz3QzO-3" value="发服务，特别急，周末，马上就要" style="rounded=1;whiteSpace=wrap;html=1;" vertex="1" parent="WIyWlLk6GJQsqaUBKTNV-1">
          <mxGeometry x="10" y="140" width="120" height="40" as="geometry" />
        </mxCell>
        <mxCell id="NrTYAa0sfm_7d7Uz3QzO-16" value="" style="edgeStyle=orthogonalEdgeStyle;rounded=0;orthogonalLoop=1;jettySize=auto;html=1;" edge="1" parent="WIyWlLk6GJQsqaUBKTNV-1" source="NrTYAa0sfm_7d7Uz3QzO-11" target="NrTYAa0sfm_7d7Uz3QzO-15">
          <mxGeometry relative="1" as="geometry" />
        </mxCell>
        <mxCell id="NrTYAa0sfm_7d7Uz3QzO-11" value="简版蓝图15套用户组配置服务权限" style="rounded=1;whiteSpace=wrap;html=1;" vertex="1" parent="WIyWlLk6GJQsqaUBKTNV-1">
          <mxGeometry x="10" y="652.5" width="120" height="45" as="geometry" />
        </mxCell>
        <mxCell id="NrTYAa0sfm_7d7Uz3QzO-18" value="" style="edgeStyle=orthogonalEdgeStyle;rounded=0;orthogonalLoop=1;jettySize=auto;html=1;" edge="1" parent="WIyWlLk6GJQsqaUBKTNV-1" source="NrTYAa0sfm_7d7Uz3QzO-15" target="NrTYAa0sfm_7d7Uz3QzO-17">
          <mxGeometry relative="1" as="geometry" />
        </mxCell>
        <mxCell id="NrTYAa0sfm_7d7Uz3QzO-15" value="APP运维定义两套服务，注意次序" style="rounded=1;whiteSpace=wrap;html=1;" vertex="1" parent="WIyWlLk6GJQsqaUBKTNV-1">
          <mxGeometry x="10" y="742.5" width="120" height="60" as="geometry" />
        </mxCell>
        <mxCell id="NrTYAa0sfm_7d7Uz3QzO-20" value="" style="edgeStyle=orthogonalEdgeStyle;rounded=0;orthogonalLoop=1;jettySize=auto;html=1;" edge="1" parent="WIyWlLk6GJQsqaUBKTNV-1" source="NrTYAa0sfm_7d7Uz3QzO-17" target="NrTYAa0sfm_7d7Uz3QzO-19">
          <mxGeometry relative="1" as="geometry" />
        </mxCell>
        <mxCell id="NrTYAa0sfm_7d7Uz3QzO-17" value="服务I键查询配置，关键用户组" style="rounded=1;whiteSpace=wrap;html=1;" vertex="1" parent="WIyWlLk6GJQsqaUBKTNV-1">
          <mxGeometry x="10" y="842.5" width="120" height="50" as="geometry" />
        </mxCell>
        <mxCell id="NrTYAa0sfm_7d7Uz3QzO-19" value="APP运维服务关联目录树" style="rounded=1;whiteSpace=wrap;html=1;" vertex="1" parent="WIyWlLk6GJQsqaUBKTNV-1">
          <mxGeometry x="10" y="932.5" width="120" height="47.5" as="geometry" />
        </mxCell>
        <mxCell id="NrTYAa0sfm_7d7Uz3QzO-27" value="" style="edgeStyle=orthogonalEdgeStyle;rounded=0;orthogonalLoop=1;jettySize=auto;html=1;fontSize=12;" edge="1" parent="WIyWlLk6GJQsqaUBKTNV-1" source="NrTYAa0sfm_7d7Uz3QzO-21" target="WIyWlLk6GJQsqaUBKTNV-11">
          <mxGeometry relative="1" as="geometry" />
        </mxCell>
        <mxCell id="NrTYAa0sfm_7d7Uz3QzO-21" value="到阿招服务监测系统添加上服务" style="rounded=1;whiteSpace=wrap;html=1;" vertex="1" parent="WIyWlLk6GJQsqaUBKTNV-1">
          <mxGeometry x="10" y="402.5" width="120" height="40" as="geometry" />
        </mxCell>
        <mxCell id="NrTYAa0sfm_7d7Uz3QzO-23" value="服务发布流程" style="text;html=1;strokeColor=none;fillColor=none;align=center;verticalAlign=middle;whiteSpace=wrap;rounded=0;fontSize=20;" vertex="1" parent="WIyWlLk6GJQsqaUBKTNV-1">
          <mxGeometry x="10" y="10" width="130" height="40" as="geometry" />
        </mxCell>
        <mxCell id="NrTYAa0sfm_7d7Uz3QzO-31" value="" style="edgeStyle=orthogonalEdgeStyle;rounded=0;orthogonalLoop=1;jettySize=auto;html=1;fontSize=12;" edge="1" parent="WIyWlLk6GJQsqaUBKTNV-1" source="NrTYAa0sfm_7d7Uz3QzO-24" target="WIyWlLk6GJQsqaUBKTNV-10">
          <mxGeometry relative="1" as="geometry" />
        </mxCell>
        <mxCell id="NrTYAa0sfm_7d7Uz3QzO-24" value="维护服务发布申请单" style="rounded=1;whiteSpace=wrap;html=1;fontSize=12;" vertex="1" parent="WIyWlLk6GJQsqaUBKTNV-1">
          <mxGeometry x="10" y="200" width="120" height="40" as="geometry" />
        </mxCell>
        <mxCell id="NrTYAa0sfm_7d7Uz3QzO-30" value="" style="endArrow=classic;html=1;fontSize=12;exitX=0.5;exitY=1;exitDx=0;exitDy=0;entryX=1;entryY=0.5;entryDx=0;entryDy=0;" edge="1" parent="WIyWlLk6GJQsqaUBKTNV-1" source="WIyWlLk6GJQsqaUBKTNV-12" target="NrTYAa0sfm_7d7Uz3QzO-21">
          <mxGeometry width="50" height="50" relative="1" as="geometry">
            <mxPoint x="230" y="622.5" as="sourcePoint" />
            <mxPoint x="280" y="572.5" as="targetPoint" />
            <Array as="points">
              <mxPoint x="240" y="402.5" />
              <mxPoint x="240" y="422.5" />
            </Array>
          </mxGeometry>
        </mxCell>
        <mxCell id="NrTYAa0sfm_7d7Uz3QzO-33" value="新增用户流程" style="text;html=1;strokeColor=none;fillColor=none;align=center;verticalAlign=middle;whiteSpace=wrap;rounded=0;fontSize=20;" vertex="1" parent="WIyWlLk6GJQsqaUBKTNV-1">
          <mxGeometry x="440" y="20" width="140" height="20" as="geometry" />
        </mxCell>
        <mxCell id="NrTYAa0sfm_7d7Uz3QzO-34" style="edgeStyle=orthogonalEdgeStyle;rounded=0;orthogonalLoop=1;jettySize=auto;html=1;exitX=0.75;exitY=1;exitDx=0;exitDy=0;entryX=0.75;entryY=0.833;entryDx=0;entryDy=0;entryPerimeter=0;fontSize=12;" edge="1" parent="WIyWlLk6GJQsqaUBKTNV-1" source="NrTYAa0sfm_7d7Uz3QzO-11" target="NrTYAa0sfm_7d7Uz3QzO-11">
          <mxGeometry relative="1" as="geometry" />
        </mxCell>
      </root>
    </mxGraphModel>
  </diagram>
</mxfile>
